# xmcd
#
# Track frame offsets: 
#        150
#        15308
#        30083
#        39495
#        48270
#        66120
#        83639
#        100199
#        110656
#        122543
#        141780
#
# Disc length: 2603 seconds
#
# Revision: 0
# Processed by: cddbd v1.5.2PL0 Copyright (c) Steve Scherf et al.
# Submitted via: ExactAudioCopy v1.0b1
#
DISCID=7c0a290b
DTITLE=La Resaka del Tuerto - Rock and Roll Tabernícola
DYEAR=2012
DGENRE=Acoustic
TTITLE0=Mª Luisa
TTITLE1=Out Of Time
TTITLE2=On The Road Again
TTITLE3=El Sietemachos
TTITLE4=Personal Jesus
TTITLE5=Silly Song
TTITLE6=The House Of The Rising Sun
TTITLE7=Good Riddance (Time of you're life)
TTITLE8=D.L.S.
TTITLE9=Widow Wimberly
TTITLE10=Don Pepito (Mr Joé)
EXTD=
EXTT0=
EXTT1=
EXTT2=
EXTT3=
EXTT4=
EXTT5=
EXTT6=
EXTT7=
EXTT8=
EXTT9=
EXTT10=
PLAYORDER=
